<svg xmlns="http://www.w3.org/2000/svg" viewBox="0 0 960 540" role="img" aria-labelledby="title desc">
  <title id="title">Preview stage</title>
  <desc id="desc">Wide cinematic stage visual with sky blue glow.</desc>
  <defs>
    <linearGradient id="bg" x1="0" x2="1" y1="0" y2="1">
      <stop offset="0%" stop-color="#15395d"/>
      <stop offset="100%" stop-color="#081525"/>
    </linearGradient>
    <radialGradient id="glow" cx="26%" cy="24%" r="40%">
      <stop offset="0%" stop-color="#8edcff" stop-opacity="0.96"/>
      <stop offset="100%" stop-color="#8edcff" stop-opacity="0"/>
    </radialGradient>
  </defs>
  <rect width="960" height="540" fill="url(#bg)"/>
  <rect width="960" height="540" fill="url(#glow)"/>
  <g opacity="0.12" stroke="#ffffff">
    <path d="M0 90h960M0 180h960M0 270h960M0 360h960M0 450h960"/>
    <path d="M120 0v540M240 0v540M360 0v540M480 0v540M600 0v540M720 0v540M840 0v540"/>
  </g>
  <circle cx="256" cy="246" r="98" fill="#b8edff" opacity="0.88"/>
  <circle cx="256" cy="246" r="68" fill="#14395d"/>
  <path d="M462 170h286" stroke="#ffffff" stroke-opacity="0.2" stroke-width="20"/>
  <path d="M462 230h212" stroke="#ffffff" stroke-opacity="0.12" stroke-width="14"/>
  <rect x="462" y="302" width="280" height="102" rx="22" fill="#0a1a2b" stroke="#8edcff" stroke-opacity="0.34"/>
  <circle cx="792" cy="372" r="56" fill="#ffcf53" opacity="0.92"/>
</svg>
